Coordinates
version=1
nRows=16
nColumns=28
inDegrees=yes

Units are S.I. units (second, meters, Newtons, ...)
Angles are in degrees.

endheader
time	pelvis_tilt	pelvis_list	pelvis_rotation	pelvis_tx	pelvis_ty	pelvis_tz	hip_flexion_r	hip_adduction_r	hip_rotation_r	knee_angle_r	ankle_angle_r	subtalar_angle_r	mtp_angle_r	hip_flexion_l	hip_adduction_l	hip_rotation_l	knee_angle_l	socket_flexion	socket_adduction	socket_rotation	socket_tx	socket_ty	socket_tz	foot_flex	lumbar_extension	lumbar_bending	lumbar_rotation
      0.32500000	      5.17834213	     -2.52635428	     -5.86940062	     -0.43139442	      1.01775679	      0.28804404	     13.11819093	      4.93803169	      4.65144935	    -63.84222078	      3.83495463	    -15.01211882	     26.05762501	     -1.23711639	     -0.43501253	     -4.76392600	    -11.57394318	     -4.88100895	     -0.18352505	     10.61561662	      0.00000000	     -0.01037548	      0.00000000	      1.65693968	    -15.07699651	     -2.12666737	      5.44167217
      0.32916667	      5.21404862	     -2.53503793	     -5.80520968	     -0.42669842	      1.01818723	      0.28779735	     13.64560661	      4.99139076	      4.66745834	    -63.39674795	      3.94313691	    -14.99738089	     26.07467532	     -1.57688088	     -0.40271306	     -4.75962886	    -11.59081283	     -4.96327733	     -0.20222542	     10.66055138	      0.00000000	     -0.01012856	      0.00000000	      1.72009653	    -15.17180416	     -2.11452177	      5.41610511
      0.33333333	      5.29989596	     -2.93041590	     -5.62402821	     -0.42114869	      1.01885572	      0.28733753	     13.82491134	      5.45346621	      4.62091386	    -62.57956316	      4.85758760	    -14.35121518	     26.32456387	     -2.23398381	     -0.79993705	     -4.98152993	    -11.12525541	     -4.76967044	     -0.19007041	     11.10218967	      0.00000000	     -0.01044709	      0.00000000	      1.88290533	    -15.22126538	     -1.54151281	      4.95553519
      0.33750000	      5.34069431	     -2.92400762	     -5.57965074	     -0.41656906	      1.01915230	      0.28714530	     14.36961715	      5.48016904	      4.61636653	    -62.15255558	      4.92268853	    -14.35321312	     26.32811937	     -2.56981173	     -0.75377483	     -4.97596736	    -11.15077789	     -4.86076033	     -0.20975972	     11.12482605	      0.00000000	     -0.01026408	      0.00000000	      1.94045685	    -15.33872772	     -1.55763335	      4.94749558
      0.34166667	      5.39922929	     -3.12073532	     -5.40153552	     -0.41134792	      1.01968533	      0.28673361	     14.65722448	      5.70978152	      4.54165550	    -61.38887555	      5.50345235	    -14.20436594	     26.39938297	     -3.07621880	     -0.93332553	     -5.05876053	    -10.88545064	     -4.76133114	     -0.22410596	     11.38406063	      0.00000000	     -0.01022263	      0.00000000	      2.14955871	    -15.38440536	     -1.27601615	      4.76988112
      0.34583333	      5.42547174	     -3.11772884	     -5.32724441	     -0.40656870	      1.02006733	      0.28651770	     15.10898103	      5.74763558	      4.57406777	    -60.76708487	      5.60581270	    -14.18385211	     26.39545081	     -3.41623634	     -0.89326278	     -5.06139568	    -10.87634680	     -4.82206438	     -0.24194969	     11.42427859	      0.00000000	     -0.00993885	      0.00000000	      2.23188686	    -15.45207161	     -1.27210567	      4.73825117
      0.35000000	      5.45307320	     -3.21677759	     -5.21453325	     -0.40161729	      1.02041943	      0.28633284	     15.49609418	      5.88916433	      4.54400157	    -60.06265562	      5.86474849	    -14.15044226	     26.39438170	     -3.82329062	     -0.98042386	     -5.07579660	    -10.74957284	     -4.83010943	     -0.25349670	     11.57917214	      0.00000000	     -0.00980431	      0.00000000	      2.38234727	    -15.47734280	     -1.14592879	      4.64014755
      0.35416667	      5.67211165	     -3.50197626	     -5.13246996	     -0.39660277	      1.02105193	      0.28597763	     15.60756355	      6.18956112	      4.48615422	    -59.24106847	      6.14370703	    -13.98896196	     26.12005698	     -4.61732529	     -1.21662698	     -5.16169768	    -10.17239410	     -4.56431741	     -0.19585959	     11.71285699	      0.00000000	     -0.01001430	      0.00000000	      2.47651969	    -15.77507741	     -0.75358593	      4.36715182
      0.35833333	      5.67169366	     -3.49327504	     -5.04117328	     -0.39180951	      1.02128472	      0.28586768	     16.04277853	      6.22246882	      4.48892716	    -58.53868168	      6.30347522	    -14.03452140	     26.09108024	     -4.93969858	     -1.19016787	     -5.12583231	    -10.13439884	     -4.60844307	     -0.21745111	     11.78902374	      0.00000000	     -0.00977858	      0.00000000	      2.58203987	    -15.78636809	     -0.77062997	      4.36512135
      0.36250000	      5.66129652	     -3.51209187	     -4.94846557	     -0.38703332	      1.02146803	      0.28561693	     16.47644455	      6.25740564	      4.47388257	    -57.80021459	      6.44998023	    -14.07946613	     26.05897389	     -5.25136608	     -1.17999782	     -5.13735202	    -10.09073548	     -4.64500066	     -0.24042276	     11.84421452	      0.00000000	     -0.00961044	      0.00000000	      2.68402525	    -15.81266107	     -0.73705115	      4.34076271
      0.36666667	      5.66199909	     -3.79580275	     -4.79195489	     -0.38193247	      1.02167513	      0.28533826	     16.77648774	      6.58618089	      4.37075260	    -56.90380360	      6.69733615	    -14.24983501	     25.79302890	     -5.73450782	     -1.47455678	     -5.15623013	     -9.71932882	     -4.49853262	     -0.20654948	     12.04387819	      0.00000000	     -0.00989109	      0.00000000	      2.80159938	    -15.82881114	     -0.34935546	      4.14801713
      0.37083333	      5.65882785	     -3.76397740	     -4.73113534	     -0.37724286	      1.02182280	      0.28515796	     17.19515556	      6.56974180	      4.37496381	    -56.13630924	      6.77400423	    -14.28753052	     25.74852901	     -6.02996404	     -1.40533045	     -5.17241625	     -9.71018570	     -4.55591428	     -0.23593994	     12.04569388	      0.00000000	     -0.00965044	      0.00000000	      2.89286164	    -15.87455371	     -0.38056994	      4.13858589
      0.37500000	      5.64137656	     -3.76069785	     -4.64385519	     -0.37242156	      1.02197189	      0.28503366	     17.57103056	      6.58938200	      4.36654529	    -55.27836595	      6.88542965	    -14.36057771	     25.68275227	     -6.34110244	     -1.38477409	     -5.16333701	     -9.65885857	     -4.59254575	     -0.25620216	     12.12334613	      0.00000000	     -0.00941771	      0.00000000	      3.01885630	    -15.86524004	     -0.37837750	      4.11344252
      0.37916667	      5.61609295	     -3.79389837	     -4.54416082	     -0.36757490	      1.02206659	      0.28484706	     17.93412653	      6.63833376	      4.33181582	    -54.38622604	      7.00642225	    -14.47112836	     25.59196684	     -6.65963450	     -1.40371172	     -5.16932220	     -9.57578503	     -4.60490539	     -0.27400141	     12.22696405	      0.00000000	     -0.00925685	      0.00000000	      3.14362916	    -15.85385766	     -0.32748058	      4.07092075
      0.38333333	      5.60853785	     -4.17129156	     -4.38518988	     -0.36248794	      1.02216669	      0.28458918	     18.15143797	      7.05968961	      4.20241600	    -53.31494932	      7.08714487	    -14.99710505	     25.02274429	     -7.17492740	     -1.80944528	     -5.22322586	     -9.09501891	     -4.39469480	     -0.21463970	     12.46107702	      0.00000000	     -0.00974987	      0.00000000	      3.26225680	    -15.86916615	      0.18556941	      3.84386053
      0.38750000	      5.58997247	     -4.10940957	     -4.33444423	     -0.35782111	      1.02221539	      0.28446011	     18.52026058	      7.00849265	      4.21937840	    -52.42318507	      7.15310525	    -15.05867360	     24.94195109	     -7.45186362	     -1.71235546	     -5.23893011	     -9.08575078	     -4.43496887	     -0.24210268	     12.45673795	      0.00000000	     -0.00948698	      0.00000000	      3.35391347	    -15.89683074	      0.11031527	      3.84366384
